<svg width="18" height="20" viewBox="0 0 18 20" fill="none" xmlns="http://www.w3.org/2000/svg">
<g id="Group">
<path id="Vector" d="M17.0704 15.586C16.768 16.2848 16.41 16.9279 15.9951 17.5194C15.4297 18.3255 14.9668 18.8834 14.61 19.1934C14.057 19.702 13.4644 19.9624 12.8298 19.9772C12.3743 19.9772 11.8249 19.8477 11.1854 19.5847C10.5439 19.3229 9.95425 19.1934 9.41513 19.1934C8.84972 19.1934 8.24332 19.3229 7.5947 19.5847C6.94509 19.8477 6.42177 19.9847 6.02165 19.9983C5.41316 20.0241 4.80664 19.7562 4.20122 19.1934C3.81481 18.8563 3.33151 18.2785 2.7525 17.4601C2.13129 16.586 1.62058 15.5724 1.22046 14.4169C0.791956 13.1688 0.577148 11.9602 0.577148 10.7901C0.577148 9.44981 0.866771 8.2938 1.44687 7.32506C1.90279 6.54695 2.50931 5.93313 3.26842 5.48254C4.02753 5.03194 4.84775 4.80231 5.73105 4.78761C6.21438 4.78761 6.84817 4.93713 7.6358 5.23094C8.42121 5.52574 8.92551 5.67525 9.14662 5.67525C9.31191 5.67525 9.87216 5.50043 10.8219 5.15193C11.72 4.82874 12.478 4.69491 13.099 4.74762C14.7816 4.88342 16.0458 5.54673 16.8864 6.74176C15.3816 7.65358 14.6372 8.93069 14.652 10.569C14.6656 11.8452 15.1285 12.9071 16.0384 13.7503C16.4506 14.1416 16.9112 14.4441 17.4235 14.6589C17.3125 14.9811 17.1951 15.2897 17.0704 15.586ZM13.2113 0.400113C13.2113 1.40034 12.8459 2.33425 12.1175 3.19867C11.2385 4.22628 10.1754 4.82009 9.02243 4.7264C9.00774 4.6064 8.99921 4.4801 8.99921 4.34739C8.99921 3.38718 9.41722 2.35955 10.1596 1.51934C10.5302 1.09392 11.0015 0.740188 11.5731 0.458012C12.1434 0.180045 12.6829 0.0263241 13.1903 0C13.2051 0.133715 13.2113 0.267438 13.2113 0.400099V0.400113Z" fill="black"/>
</g>
</svg>
