<svg width="19" height="19" viewBox="0 0 19 19" fill="none" xmlns="http://www.w3.org/2000/svg">
<g id="Google logo">
<g clip-path="url(#clip0_384_26394)">
<path id="Vector" d="M18.174 9.71009C18.174 8.93122 18.1121 8.36285 17.9782 7.77344H9.27246V11.2889H14.3825C14.2796 12.1625 13.7232 13.4782 12.4869 14.3623L12.4695 14.48L15.2221 16.6585L15.4128 16.6779C17.1643 15.0254 18.174 12.594 18.174 9.71009Z" fill="#4285F4"/>
<path id="Vector_2" d="M9.27263 18.9724C11.7761 18.9724 13.8779 18.1303 15.413 16.6778L12.487 14.3622C11.7041 14.9201 10.6532 15.3095 9.27263 15.3095C6.82061 15.3095 4.73948 13.6571 3.99762 11.373L3.88888 11.3825L1.02669 13.6454L0.989258 13.7517C2.51404 16.8462 5.64606 18.9724 9.27263 18.9724Z" fill="#34A853"/>
<path id="Vector_3" d="M3.9974 11.3731C3.80165 10.7837 3.68836 10.1521 3.68836 9.49955C3.68836 8.84693 3.80165 8.21543 3.9871 7.62602L3.98191 7.50049L1.08385 5.20117L0.989033 5.24725C0.360597 6.53136 0 7.97337 0 9.49955C0 11.0257 0.360597 12.4677 0.989033 13.7518L3.9974 11.3731Z" fill="#FBBC05"/>
<path id="Vector_4" d="M9.27263 3.69016C11.0138 3.69016 12.1882 4.45851 12.8579 5.1006L15.4748 2.49029C13.8676 0.964108 11.7761 0.0273438 9.27263 0.0273438C5.64606 0.0273438 2.51404 2.15346 0.989258 5.2479L3.98732 7.62667C4.73949 5.34267 6.82061 3.69016 9.27263 3.69016Z" fill="#EB4335"/>
</g>
</g>
<defs>
<clipPath id="clip0_384_26394">
<rect width="18.1739" height="19" rx="9.08696" fill="white"/>
</clipPath>
</defs>
</svg>
